<svg width="276" height="190" viewBox="0 0 276 190" fill="none" xmlns="http://www.w3.org/2000/svg">
<path d="M38.7773 163H36.7852V147.637H27.9844V163H25.9922V145.867H38.7773V163ZM54.293 156.566C54.293 158.66 53.7656 160.297 52.7109 161.477C51.6562 162.648 50.1992 163.234 48.3398 163.234C47.1914 163.234 46.1719 162.965 45.2812 162.426C44.3906 161.887 43.7031 161.113 43.2188 160.105C42.7344 159.098 42.4922 157.918 42.4922 156.566C42.4922 154.473 43.0156 152.844 44.0625 151.68C45.1094 150.508 46.5625 149.922 48.4219 149.922C50.2188 149.922 51.6445 150.52 52.6992 151.715C53.7617 152.91 54.293 154.527 54.293 156.566ZM44.5078 156.566C44.5078 158.207 44.8359 159.457 45.4922 160.316C46.1484 161.176 47.1133 161.605 48.3867 161.605C49.6602 161.605 50.625 161.18 51.2812 160.328C51.9453 159.469 52.2773 158.215 52.2773 156.566C52.2773 154.934 51.9453 153.695 51.2812 152.852C50.625 152 49.6523 151.574 48.3633 151.574C47.0898 151.574 46.1289 151.992 45.4805 152.828C44.832 153.664 44.5078 154.91 44.5078 156.566ZM74.3672 153.379C74.3672 154.215 74.125 154.852 73.6406 155.289C73.1641 155.719 72.4922 156.008 71.625 156.156V156.262C72.7188 156.41 73.5156 156.73 74.0156 157.223C74.5234 157.715 74.7773 158.395 74.7773 159.262C74.7773 160.457 74.3359 161.379 73.4531 162.027C72.5781 162.676 71.2969 163 69.6094 163H63.9492V150.156H69.5859C72.7734 150.156 74.3672 151.23 74.3672 153.379ZM72.832 159.133C72.832 158.438 72.5664 157.934 72.0352 157.621C71.5117 157.301 70.6406 157.141 69.4219 157.141H65.8945V161.371H69.4688C71.7109 161.371 72.832 160.625 72.832 159.133ZM72.4688 153.566C72.4688 152.941 72.2266 152.5 71.7422 152.242C71.2656 151.977 70.5391 151.844 69.5625 151.844H65.8945V155.465H69.1875C70.3906 155.465 71.2383 155.316 71.7305 155.02C72.2227 154.723 72.4688 154.238 72.4688 153.566ZM85.5117 163L85.125 161.172H85.0312C84.3906 161.977 83.75 162.523 83.1094 162.812C82.4766 163.094 81.6836 163.234 80.7305 163.234C79.457 163.234 78.457 162.906 77.7305 162.25C77.0117 161.594 76.6523 160.66 76.6523 159.449C76.6523 156.855 78.7266 155.496 82.875 155.371L85.0547 155.301V154.504C85.0547 153.496 84.8359 152.754 84.3984 152.277C83.9688 151.793 83.2773 151.551 82.3242 151.551C81.2539 151.551 80.043 151.879 78.6914 152.535L78.0938 151.047C78.7266 150.703 79.418 150.434 80.168 150.238C80.9258 150.043 81.6836 149.945 82.4414 149.945C83.9727 149.945 85.1055 150.285 85.8398 150.965C86.582 151.645 86.9531 152.734 86.9531 154.234V163H85.5117ZM81.1172 161.629C82.3281 161.629 83.2773 161.297 83.9648 160.633C84.6602 159.969 85.0078 159.039 85.0078 157.844V156.684L83.0625 156.766C81.5156 156.82 80.3984 157.062 79.7109 157.492C79.0312 157.914 78.6914 158.574 78.6914 159.473C78.6914 160.176 78.9023 160.711 79.3242 161.078C79.7539 161.445 80.3516 161.629 81.1172 161.629ZM100.547 161.324H106.242V150.156H108.211V163H90.9727V150.156H92.918V161.324H98.6016V150.156H100.547V161.324ZM117.773 163.234C115.875 163.234 114.375 162.656 113.273 161.5C112.18 160.344 111.633 158.738 111.633 156.684C111.633 154.613 112.141 152.969 113.156 151.75C114.18 150.531 115.551 149.922 117.27 149.922C118.879 149.922 120.152 150.453 121.09 151.516C122.027 152.57 122.496 153.965 122.496 155.699V156.93H113.648C113.688 158.438 114.066 159.582 114.785 160.363C115.512 161.145 116.531 161.535 117.844 161.535C119.227 161.535 120.594 161.246 121.945 160.668V162.402C121.258 162.699 120.605 162.91 119.988 163.035C119.379 163.168 118.641 163.234 117.773 163.234ZM117.246 151.551C116.215 151.551 115.391 151.887 114.773 152.559C114.164 153.23 113.805 154.16 113.695 155.348H120.41C120.41 154.121 120.137 153.184 119.59 152.535C119.043 151.879 118.262 151.551 117.246 151.551ZM132.492 161.125L132.855 160.035L133.359 158.652L136.84 150.18H139.312V163H137.59V152.395L137.355 153.074L136.676 154.867L133.359 163H131.73L128.414 154.844C128 153.797 127.715 152.98 127.559 152.395V163H125.824V150.18H128.203L131.566 158.324C131.902 159.184 132.211 160.117 132.492 161.125ZM141.434 150.156H143.52L146.332 157.48C146.949 159.152 147.332 160.359 147.48 161.102H147.574C147.676 160.703 147.887 160.023 148.207 159.062C148.535 158.094 149.598 155.125 151.395 150.156H153.48L147.961 164.781C147.414 166.227 146.773 167.25 146.039 167.852C145.312 168.461 144.418 168.766 143.355 168.766C142.762 168.766 142.176 168.699 141.598 168.566V167.008C142.027 167.102 142.508 167.148 143.039 167.148C144.375 167.148 145.328 166.398 145.898 164.898L146.613 163.07L141.434 150.156ZM164.25 155.488C166.68 155.488 167.895 154.816 167.895 153.473C167.895 152.207 166.91 151.574 164.941 151.574C164.34 151.574 163.793 151.629 163.301 151.738C162.809 151.848 162.164 152.066 161.367 152.395L160.676 150.812C162.004 150.219 163.453 149.922 165.023 149.922C166.5 149.922 167.664 150.227 168.516 150.836C169.367 151.438 169.793 152.262 169.793 153.309C169.793 154.746 168.992 155.688 167.391 156.133V156.227C168.375 156.516 169.094 156.93 169.547 157.469C170 158 170.227 158.668 170.227 159.473C170.227 160.66 169.746 161.586 168.785 162.25C167.832 162.906 166.512 163.234 164.824 163.234C162.973 163.234 161.543 162.957 160.535 162.402V160.621C161.965 161.293 163.41 161.629 164.871 161.629C165.996 161.629 166.844 161.438 167.414 161.055C167.992 160.664 168.281 160.105 168.281 159.379C168.281 157.887 167.066 157.141 164.637 157.141H162.855V155.488H164.25ZM181.301 163L180.914 161.172H180.82C180.18 161.977 179.539 162.523 178.898 162.812C178.266 163.094 177.473 163.234 176.52 163.234C175.246 163.234 174.246 162.906 173.52 162.25C172.801 161.594 172.441 160.66 172.441 159.449C172.441 156.855 174.516 155.496 178.664 155.371L180.844 155.301V154.504C180.844 153.496 180.625 152.754 180.188 152.277C179.758 151.793 179.066 151.551 178.113 151.551C177.043 151.551 175.832 151.879 174.48 152.535L173.883 151.047C174.516 150.703 175.207 150.434 175.957 150.238C176.715 150.043 177.473 149.945 178.23 149.945C179.762 149.945 180.895 150.285 181.629 150.965C182.371 151.645 182.742 152.734 182.742 154.234V163H181.301ZM176.906 161.629C178.117 161.629 179.066 161.297 179.754 160.633C180.449 159.969 180.797 159.039 180.797 157.844V156.684L178.852 156.766C177.305 156.82 176.188 157.062 175.5 157.492C174.82 157.914 174.48 158.574 174.48 159.473C174.48 160.176 174.691 160.711 175.113 161.078C175.543 161.445 176.141 161.629 176.906 161.629ZM188.707 163H186.762V150.156H197.543V163H195.574V151.844H188.707V163ZM207.645 163.234C206.809 163.234 206.043 163.082 205.348 162.777C204.66 162.465 204.082 161.988 203.613 161.348H203.473C203.566 162.098 203.613 162.809 203.613 163.48V168.766H201.668V150.156H203.25L203.52 151.914H203.613C204.113 151.211 204.695 150.703 205.359 150.391C206.023 150.078 206.785 149.922 207.645 149.922C209.348 149.922 210.66 150.504 211.582 151.668C212.512 152.832 212.977 154.465 212.977 156.566C212.977 158.676 212.504 160.316 211.559 161.488C210.621 162.652 209.316 163.234 207.645 163.234ZM207.363 151.574C206.051 151.574 205.102 151.938 204.516 152.664C203.93 153.391 203.629 154.547 203.613 156.133V156.566C203.613 158.371 203.914 159.664 204.516 160.445C205.117 161.219 206.082 161.605 207.41 161.605C208.52 161.605 209.387 161.156 210.012 160.258C210.645 159.359 210.961 158.121 210.961 156.543C210.961 154.941 210.645 153.715 210.012 152.863C209.387 152.004 208.504 151.574 207.363 151.574ZM227.473 156.566C227.473 158.66 226.945 160.297 225.891 161.477C224.836 162.648 223.379 163.234 221.52 163.234C220.371 163.234 219.352 162.965 218.461 162.426C217.57 161.887 216.883 161.113 216.398 160.105C215.914 159.098 215.672 157.918 215.672 156.566C215.672 154.473 216.195 152.844 217.242 151.68C218.289 150.508 219.742 149.922 221.602 149.922C223.398 149.922 224.824 150.52 225.879 151.715C226.941 152.91 227.473 154.527 227.473 156.566ZM217.688 156.566C217.688 158.207 218.016 159.457 218.672 160.316C219.328 161.176 220.293 161.605 221.566 161.605C222.84 161.605 223.805 161.18 224.461 160.328C225.125 159.469 225.457 158.215 225.457 156.566C225.457 154.934 225.125 153.695 224.461 152.852C223.805 152 222.832 151.574 221.543 151.574C220.27 151.574 219.309 151.992 218.66 152.828C218.012 153.664 217.688 154.91 217.688 156.566ZM236.027 163.234C234.168 163.234 232.727 162.664 231.703 161.523C230.688 160.375 230.18 158.754 230.18 156.66C230.18 154.512 230.695 152.852 231.727 151.68C232.766 150.508 234.242 149.922 236.156 149.922C236.773 149.922 237.391 149.988 238.008 150.121C238.625 150.254 239.109 150.41 239.461 150.59L238.863 152.242C238.434 152.07 237.965 151.93 237.457 151.82C236.949 151.703 236.5 151.645 236.109 151.645C233.5 151.645 232.195 153.309 232.195 156.637C232.195 158.215 232.512 159.426 233.145 160.27C233.785 161.113 234.73 161.535 235.98 161.535C237.051 161.535 238.148 161.305 239.273 160.844V162.566C238.414 163.012 237.332 163.234 236.027 163.234ZM240.293 150.156H242.379L245.191 157.48C245.809 159.152 246.191 160.359 246.34 161.102H246.434C246.535 160.703 246.746 160.023 247.066 159.062C247.395 158.094 248.457 155.125 250.254 150.156H252.34L246.82 164.781C246.273 166.227 245.633 167.25 244.898 167.852C244.172 168.461 243.277 168.766 242.215 168.766C241.621 168.766 241.035 168.699 240.457 168.566V167.008C240.887 167.102 241.367 167.148 241.898 167.148C243.234 167.148 244.188 166.398 244.758 164.898L245.473 163.07L240.293 150.156ZM27.8789 174.156V179.535H35.0742V174.156H37.0195V187H35.0742V181.211H27.8789V187H25.9336V174.156H27.8789ZM42.9727 174.156V182.301L42.8906 184.434L42.8555 185.102L49.8047 174.156H52.2305V187H50.4141V179.148L50.4492 177.602L50.5078 176.078L43.5703 187H41.1445V174.156H42.9727ZM58.0664 174.156V178.844C58.0664 180.344 58.9219 181.094 60.6328 181.094C61.3438 181.094 62.0234 180.984 62.6719 180.766C63.3203 180.547 64.0547 180.176 64.875 179.652V174.156H66.8203V187H64.875V181.188C64.0547 181.75 63.293 182.148 62.5898 182.383C61.8945 182.609 61.1055 182.723 60.2227 182.723C58.9414 182.723 57.9375 182.387 57.2109 181.715C56.4844 181.043 56.1211 180.133 56.1211 178.984V174.156H58.0664ZM76.3828 187.234C74.4844 187.234 72.9844 186.656 71.8828 185.5C70.7891 184.344 70.2422 182.738 70.2422 180.684C70.2422 178.613 70.75 176.969 71.7656 175.75C72.7891 174.531 74.1602 173.922 75.8789 173.922C77.4883 173.922 78.7617 174.453 79.6992 175.516C80.6367 176.57 81.1055 177.965 81.1055 179.699V180.93H72.2578C72.2969 182.438 72.6758 183.582 73.3945 184.363C74.1211 185.145 75.1406 185.535 76.4531 185.535C77.8359 185.535 79.2031 185.246 80.5547 184.668V186.402C79.8672 186.699 79.2148 186.91 78.5977 187.035C77.9883 187.168 77.25 187.234 76.3828 187.234ZM75.8555 175.551C74.8242 175.551 74 175.887 73.3828 176.559C72.7734 177.23 72.4141 178.16 72.3047 179.348H79.0195C79.0195 178.121 78.7461 177.184 78.1992 176.535C77.6523 175.879 76.8711 175.551 75.8555 175.551ZM92.168 175.82H86.3789V187H84.4336V174.156H92.168V175.82ZM105.809 180.566C105.809 182.66 105.281 184.297 104.227 185.477C103.172 186.648 101.715 187.234 99.8555 187.234C98.707 187.234 97.6875 186.965 96.7969 186.426C95.9062 185.887 95.2188 185.113 94.7344 184.105C94.25 183.098 94.0078 181.918 94.0078 180.566C94.0078 178.473 94.5312 176.844 95.5781 175.68C96.625 174.508 98.0781 173.922 99.9375 173.922C101.734 173.922 103.16 174.52 104.215 175.715C105.277 176.91 105.809 178.527 105.809 180.566ZM96.0234 180.566C96.0234 182.207 96.3516 183.457 97.0078 184.316C97.6641 185.176 98.6289 185.605 99.9023 185.605C101.176 185.605 102.141 185.18 102.797 184.328C103.461 183.469 103.793 182.215 103.793 180.566C103.793 178.934 103.461 177.695 102.797 176.852C102.141 176 101.168 175.574 99.8789 175.574C98.6055 175.574 97.6445 175.992 96.9961 176.828C96.3477 177.664 96.0234 178.91 96.0234 180.566ZM117.41 174.156V179.535H124.605V174.156H126.551V187H124.605V181.211H117.41V187H115.465V174.156H117.41ZM136.102 187.234C134.203 187.234 132.703 186.656 131.602 185.5C130.508 184.344 129.961 182.738 129.961 180.684C129.961 178.613 130.469 176.969 131.484 175.75C132.508 174.531 133.879 173.922 135.598 173.922C137.207 173.922 138.48 174.453 139.418 175.516C140.355 176.57 140.824 177.965 140.824 179.699V180.93H131.977C132.016 182.438 132.395 183.582 133.113 184.363C133.84 185.145 134.859 185.535 136.172 185.535C137.555 185.535 138.922 185.246 140.273 184.668V186.402C139.586 186.699 138.934 186.91 138.316 187.035C137.707 187.168 136.969 187.234 136.102 187.234ZM135.574 175.551C134.543 175.551 133.719 175.887 133.102 176.559C132.492 177.23 132.133 178.16 132.023 179.348H138.738C138.738 178.121 138.465 177.184 137.918 176.535C137.371 175.879 136.59 175.551 135.574 175.551ZM152.332 174.156V179.535H159.527V174.156H161.473V187H159.527V181.211H152.332V187H150.387V174.156H152.332ZM173.496 187L173.109 185.172H173.016C172.375 185.977 171.734 186.523 171.094 186.812C170.461 187.094 169.668 187.234 168.715 187.234C167.441 187.234 166.441 186.906 165.715 186.25C164.996 185.594 164.637 184.66 164.637 183.449C164.637 180.855 166.711 179.496 170.859 179.371L173.039 179.301V178.504C173.039 177.496 172.82 176.754 172.383 176.277C171.953 175.793 171.262 175.551 170.309 175.551C169.238 175.551 168.027 175.879 166.676 176.535L166.078 175.047C166.711 174.703 167.402 174.434 168.152 174.238C168.91 174.043 169.668 173.945 170.426 173.945C171.957 173.945 173.09 174.285 173.824 174.965C174.566 175.645 174.938 176.734 174.938 178.234V187H173.496ZM169.102 185.629C170.312 185.629 171.262 185.297 171.949 184.633C172.645 183.969 172.992 183.039 172.992 181.844V180.684L171.047 180.766C169.5 180.82 168.383 181.062 167.695 181.492C167.016 181.914 166.676 182.574 166.676 183.473C166.676 184.176 166.887 184.711 167.309 185.078C167.738 185.445 168.336 185.629 169.102 185.629ZM188.531 185.324H194.227V174.156H196.195V187H178.957V174.156H180.902V185.324H186.586V174.156H188.531V185.324ZM209.906 187H207.938V175.82H204.082C203.871 178.602 203.578 180.809 203.203 182.441C202.828 184.074 202.34 185.27 201.738 186.027C201.145 186.785 200.387 187.164 199.465 187.164C199.043 187.164 198.707 187.117 198.457 187.023V185.582C198.629 185.629 198.824 185.652 199.043 185.652C199.941 185.652 200.656 184.703 201.188 182.805C201.719 180.906 202.121 178.023 202.395 174.156H209.906V187ZM225.129 180.566C225.129 182.66 224.602 184.297 223.547 185.477C222.492 186.648 221.035 187.234 219.176 187.234C218.027 187.234 217.008 186.965 216.117 186.426C215.227 185.887 214.539 185.113 214.055 184.105C213.57 183.098 213.328 181.918 213.328 180.566C213.328 178.473 213.852 176.844 214.898 175.68C215.945 174.508 217.398 173.922 219.258 173.922C221.055 173.922 222.48 174.52 223.535 175.715C224.598 176.91 225.129 178.527 225.129 180.566ZM215.344 180.566C215.344 182.207 215.672 183.457 216.328 184.316C216.984 185.176 217.949 185.605 219.223 185.605C220.496 185.605 221.461 185.18 222.117 184.328C222.781 183.469 223.113 182.215 223.113 180.566C223.113 178.934 222.781 177.695 222.117 176.852C221.461 176 220.488 175.574 219.199 175.574C217.926 175.574 216.965 175.992 216.316 176.828C215.668 177.664 215.344 178.91 215.344 180.566ZM233.684 187.234C231.824 187.234 230.383 186.664 229.359 185.523C228.344 184.375 227.836 182.754 227.836 180.66C227.836 178.512 228.352 176.852 229.383 175.68C230.422 174.508 231.898 173.922 233.812 173.922C234.43 173.922 235.047 173.988 235.664 174.121C236.281 174.254 236.766 174.41 237.117 174.59L236.52 176.242C236.09 176.07 235.621 175.93 235.113 175.82C234.605 175.703 234.156 175.645 233.766 175.645C231.156 175.645 229.852 177.309 229.852 180.637C229.852 182.215 230.168 183.426 230.801 184.27C231.441 185.113 232.387 185.535 233.637 185.535C234.707 185.535 235.805 185.305 236.93 184.844V186.566C236.07 187.012 234.988 187.234 233.684 187.234ZM241.934 179.465H245.895C249.176 179.465 250.816 180.672 250.816 183.086C250.816 184.352 250.387 185.32 249.527 185.992C248.676 186.664 247.426 187 245.777 187H239.988V174.156H241.934V179.465ZM241.934 181.141V185.371H245.684C246.715 185.371 247.504 185.191 248.051 184.832C248.598 184.473 248.871 183.93 248.871 183.203C248.871 182.492 248.617 181.973 248.109 181.645C247.609 181.309 246.781 181.141 245.625 181.141H241.934Z" fill="#999999"/>
<path opacity="0.2" fill-rule="evenodd" clip-rule="evenodd" d="M67.5794 100.365C87.8369 100.365 91.6542 82.2743 91.6542 67.7904C94.0602 67.7904 113.075 67.7904 121.748 67.7904C168.924 67.7904 168.936 0 123.252 0C110.827 0 102.823 7.65074 100.681 10.3159C75.1916 10.3159 72.0935 23.8426 72.0935 50.1074C72.0935 55.1744 72.0935 71.6455 72.0935 74.1827C72.0935 80.3583 69.6499 84.3648 63.0639 84.3648C57.441 84.3648 54.7777 79.3079 52.5312 72.2115C51.3606 72.8501 43.1405 77.3658 42 78.1063C44.4872 85.1955 47.1505 100.365 67.5794 100.365ZM96.2194 39.79C103.937 39.79 104.593 51.5796 95.6732 51.5796C88.1543 51.5796 88.35 39.79 96.2194 39.79ZM123.254 75.1196C116.731 75.1196 97.6729 73.6852 97.6729 73.6852V110.032L115.729 110.294L120.243 84.0011L177.421 82.91L178.927 111.737L199.992 112C199.992 112 203 55.5381 203 44.2111C203 23.201 193.745 11.3095 172.907 10.3159C167.685 10.0672 160.854 9.07789 156.355 8.84221C175.966 33.0776 160.362 75.1196 123.254 75.1196ZM159.366 89.8566L160.869 111.213L172.907 111.476L171.402 89.8566H159.366ZM121.748 110.558L133.785 110.82L136.793 89.8566H126.26L121.748 110.558Z" fill="#666666"/>
</svg>
