<?xml version="1.0" standalone="no"?>
<!DOCTYPE svg PUBLIC "-//W3C//DTD SVG 20010904//EN"
 "http://www.w3.org/TR/2001/REC-SVG-20010904/DTD/svg10.dtd">
<svg version="1.0" xmlns="http://www.w3.org/2000/svg"
 width="96.000000pt" height="96.000000pt" viewBox="0 0 96.000000 96.000000"
 preserveAspectRatio="xMidYMid meet">
<metadata>
Created by potrace 1.14, written by Peter Selinger 2001-2017
</metadata>
<g transform="translate(0.000000,96.000000) scale(0.100000,-0.100000)"
fill="#000000" stroke="none">
<path d="M437 813 c4 -11 2 -14 -5 -9 -6 4 -22 1 -34 -6 -13 -7 -27 -11 -31
-10 -5 1 -6 -1 -4 -5 9 -14 -17 -28 -57 -31 -22 -1 -46 -8 -55 -15 -12 -10
-14 -9 -7 3 4 8 1 7 -8 -4 -8 -10 -20 -15 -27 -10 -8 4 -10 3 -5 -5 4 -6 0
-18 -8 -27 -9 -9 -14 -19 -11 -24 3 -5 1 -11 -4 -15 -6 -3 -7 -13 -4 -22 5
-12 3 -14 -8 -8 -12 8 -12 6 0 -8 9 -12 10 -17 2 -17 -9 0 -9 -5 0 -22 10 -18
9 -20 -4 -15 -11 4 -14 2 -10 -8 3 -8 8 -13 12 -10 4 2 7 -13 7 -35 -1 -21 -4
-36 -8 -33 -5 2 -4 -6 0 -19 11 -30 4 -60 -11 -51 -7 3 -4 -3 6 -14 16 -19 16
-22 2 -36 -8 -9 -15 -21 -15 -27 0 -6 -4 -9 -9 -5 -5 3 -12 1 -16 -5 -3 -5
-11 -10 -16 -10 -6 0 -7 5 -4 10 3 6 -3 10 -14 10 -19 0 -26 11 -22 33 1 5 -3
6 -9 2 -5 -3 -10 0 -10 8 0 7 -7 14 -15 14 -8 0 -12 -4 -9 -9 3 -4 -2 -8 -10
-8 -12 0 -16 -10 -16 -35 0 -45 53 -105 93 -105 14 0 29 -5 32 -10 3 -6 12
-10 18 -10 7 0 6 4 -3 10 -11 7 -4 10 28 10 28 0 45 5 48 15 4 8 10 13 14 10
4 -3 14 3 21 12 11 13 11 15 1 9 -11 -7 -11 -4 -1 12 7 12 17 18 22 15 5 -3 4
4 -2 16 -9 16 -9 21 1 19 15 -4 18 22 4 41 -8 11 -8 13 2 7 8 -5 12 -1 12 11
0 16 11 18 126 18 78 0 128 5 132 11 4 6 15 10 25 8 9 -1 15 1 12 6 -3 4 2 11
11 14 8 3 12 11 8 17 -4 8 -3 9 5 5 6 -4 14 0 17 8 3 9 11 13 17 9 6 -4 8 0 4
10 -3 9 1 18 10 21 8 4 13 12 10 20 -3 8 -3 17 0 20 11 11 12 95 1 102 -7 4
-6 9 3 15 11 7 10 9 -3 9 -12 0 -15 5 -11 17 4 11 3 14 -6 9 -6 -4 -10 -4 -9
1 5 17 -24 54 -38 49 -8 -3 -13 -2 -10 3 11 18 -40 39 -91 37 -28 0 -49 2 -47
5 2 4 -3 9 -11 12 -10 4 -12 1 -8 -10z m-105 -248 c-2 -4 2 -11 10 -16 9 -6
10 -11 2 -19 -32 -32 -83 -4 -61 32 11 16 56 20 49 3z"/>
<path d="M722 763 c-6 -2 -10 -8 -7 -12 2 -5 -7 -6 -20 -3 -15 2 -25 0 -25 -7
0 -6 5 -10 12 -8 7 1 13 -4 14 -10 1 -7 2 -18 3 -24 0 -5 5 -8 10 -5 11 7 9
-13 -3 -32 -4 -7 -4 -12 1 -11 20 3 27 -2 13 -11 -12 -8 -12 -10 -1 -10 11 0
11 -3 0 -16 -10 -13 -10 -17 2 -25 9 -5 10 -9 2 -9 -6 0 -10 -9 -8 -20 2 -11
0 -20 -6 -20 -5 0 -9 -9 -9 -20 0 -11 -5 -20 -11 -20 -5 0 -7 -4 -4 -10 3 -5
1 -10 -5 -10 -7 0 -10 -7 -7 -14 4 -11 1 -13 -10 -9 -10 4 -14 2 -10 -4 7 -11
-20 -28 -36 -24 -5 1 -6 -2 -3 -7 3 -5 -13 -18 -34 -30 -27 -14 -42 -17 -46
-10 -5 7 -11 5 -20 -6 -6 -9 -14 -13 -17 -9 -7 11 -48 10 -67 -2 -9 -6 -11 -4
-5 5 6 9 2 10 -15 5 -17 -6 -21 -4 -14 6 6 12 5 12 -9 0 -9 -7 -17 -10 -17 -7
0 4 -13 -1 -30 -11 -30 -17 -39 -33 -20 -33 6 0 10 -5 10 -11 0 -5 -4 -8 -9
-5 -11 7 -9 -13 2 -32 5 -7 3 -12 -5 -12 -9 0 -9 -3 2 -10 12 -8 12 -10 1 -10
-10 0 -11 -3 -2 -13 6 -8 8 -17 4 -21 -11 -10 -12 -37 -2 -30 5 3 9 -2 9 -10
0 -10 6 -13 15 -10 9 4 15 0 15 -7 0 -11 2 -11 9 0 7 11 13 12 23 3 9 -7 19
-8 28 -2 8 6 11 10 5 10 -5 0 -2 5 7 11 14 8 15 15 8 35 -6 14 -6 23 -2 20 5
-3 9 11 9 31 0 42 27 70 50 52 10 -9 13 -8 13 1 0 10 3 10 15 0 12 -10 15 -10
15 1 0 11 2 11 10 -1 9 -13 10 -13 10 0 0 9 3 11 8 5 13 -18 35 -17 28 2 -6
15 -4 14 15 -3 14 -11 19 -13 14 -4 -8 13 -7 13 8 1 13 -10 17 -10 17 -1 0 9
3 10 13 1 10 -8 17 -7 26 2 9 9 14 9 21 -3 7 -10 10 -11 10 -2 0 6 5 12 11 12
5 0 7 -6 3 -12 -5 -8 0 -7 11 2 14 11 19 12 22 3 3 -7 9 -13 14 -13 6 0 7 6 3
13 -4 6 -4 9 0 5 4 -3 7 -8 5 -10 -1 -2 3 -13 9 -25 9 -16 9 -23 -1 -26 -9 -4
-8 -6 2 -6 11 -1 11 -4 1 -16 -7 -8 -8 -15 -3 -15 6 0 9 -16 8 -35 -1 -19 1
-36 4 -36 23 -5 121 -5 122 0 0 3 2 33 3 67 2 33 6 66 9 72 4 5 1 13 -5 15
-10 4 -9 8 2 16 12 9 13 13 2 20 -12 7 -11 14 2 39 12 23 13 30 3 26 -8 -3
-13 3 -13 15 0 16 3 18 15 8 12 -10 13 -9 2 11 -7 13 -8 22 -2 22 5 0 9 9 8
19 0 11 -5 17 -9 15 -5 -3 -5 -10 -2 -16 5 -7 2 -8 -5 -4 -9 6 -9 12 3 25 19
21 21 35 4 25 -7 -5 -8 -3 -3 7 11 17 14 70 4 64 -4 -3 -9 2 -13 10 -3 8 0 15
7 15 8 1 7 5 -3 13 -9 7 -14 20 -12 31 2 10 0 16 -5 13 -5 -3 -17 5 -27 19
-11 13 -25 24 -32 24 -7 0 -14 5 -16 10 -2 6 -29 11 -60 12 -31 1 -54 6 -52
10 6 9 5 9 -14 1z"/>
<path d="M155 520 c-3 -5 -1 -10 4 -10 6 0 11 5 11 10 0 6 -2 10 -4 10 -3 0
-8 -4 -11 -10z"/>
<path d="M330 380 c-8 -5 -12 -12 -9 -15 4 -3 12 1 19 10 14 17 11 19 -10 5z"/>
<path d="M495 280 c3 -4 -2 -11 -11 -14 -13 -5 -14 -9 -4 -21 7 -8 8 -15 3
-15 -5 0 -10 -16 -11 -36 -2 -20 1 -33 7 -30 5 3 12 0 14 -6 4 -10 6 -10 6 0
1 7 6 10 11 7 21 -13 35 14 35 66 0 49 -1 52 -28 55 -15 1 -25 -1 -22 -6z"/>
<path d="M694 280 c-17 -6 -17 -7 1 -18 18 -10 18 -11 3 -12 -10 0 -18 -4 -18
-10 0 -5 8 -10 18 -10 9 0 13 -4 7 -8 -26 -19 -2 -74 29 -67 30 6 44 18 39 32
-3 8 0 19 8 25 10 6 6 7 -11 2 -23 -6 -24 -5 -11 10 12 15 12 19 1 26 -10 6
-8 9 6 13 16 4 17 5 2 6 -10 0 -18 5 -18 10 0 11 -28 11 -56 1z"/>
</g>
</svg>
